<?xml version="1.0" encoding="UTF-8"?><svg id="a" xmlns="http://www.w3.org/2000/svg" viewBox="0 0 664.78 87.8"><defs><style>.b{fill:#010101;}</style></defs><path class="b" d="M492.58,0l-82.35,87.45-5.36-5.4L474.15,7.63h-66.58V0h85.01Zm28.16,.3l5.31,5.4-69.75,74.46h67.09v7.63h-85.65L520.74,.3Z"/><path class="b" d="M390.21,30.01v57.79h-7.24V41.41l-54.53,25.51-54.53-25.51v46.39h-7.24V30.01l61.78,28.89,61.77-28.89Zm-2.1-23.45l-59.67,27.95-59.67-27.95L271.81,0l56.63,26.49L385.03,0l3.09,6.56Z"/><path class="b" d="M232.78,53.54l20.92,29.96-6.05,4.29-18.65-26.84h-75.19l-18.65,26.84-6.05-4.29,20.88-29.96h82.78Zm-21.18-24.01h-39.52L191.84,0l19.76,29.54Zm-25.16-7.42h10.85l-5.44-9.39-5.4,9.39Z"/><path class="b" d="M643.86,53.54l20.92,29.96-6.05,4.29-18.65-26.84h-75.19l-18.65,26.84-6.05-4.29,20.88-29.96h82.78Zm-21.18-24.01h-39.52L602.92,0l19.76,29.54Zm-25.16-7.42h10.85l-5.44-9.39-5.4,9.39Z"/><path class="b" d="M108.69,0l.04,30.61H.04L0,0H6.39l.04,22.76H102.35l-.04-22.76h6.38Zm.04,54.49l.04,33.31h-6.39l-.04-25.46H6.42l.04,25.46H.07L.04,54.49H108.73Z"/></svg>